<svg width="291" height="106" viewBox="0 0 291 106" fill="none" xmlns="http://www.w3.org/2000/svg">
<g clip-path="url(#clip0_1496_25)">
<path d="M104.873 81C103.539 81 102.419 80.4667 101.513 79.4C100.659 78.3333 100.233 77.0267 100.233 75.48C100.233 74.4667 100.473 73.56 100.953 72.76L113.273 53.48C113.859 52.5733 114.339 51.9333 114.713 51.56C115.086 51.1867 115.486 50.92 115.913 50.76H104.713C101.139 50.76 99.3525 49.1333 99.3525 45.88C99.3525 42.6267 101.139 41 104.713 41H124.473C125.913 41 127.113 41.5333 128.073 42.6C129.033 43.6667 129.513 44.9733 129.513 46.52C129.513 47.5333 129.273 48.44 128.793 49.24L115.753 68.68C114.793 70.1733 113.699 71.0267 112.473 71.24H126.073C129.646 71.24 131.433 72.92 131.433 76.28C131.433 79.4267 129.646 81 126.073 81H104.873ZM144.062 81.64C140.222 81.64 138.302 79.8267 138.302 76.2V45.88C138.302 42.2 140.222 40.36 144.062 40.36C145.982 40.36 147.369 40.7867 148.222 41.64C149.075 42.44 149.502 43.7733 149.502 45.64C150.462 43.88 151.822 42.5733 153.582 41.72C155.395 40.8133 157.502 40.36 159.902 40.36C164.489 40.36 166.782 42.36 166.782 46.36C166.782 47.8533 166.222 48.9733 165.102 49.72C163.982 50.4667 162.142 50.84 159.582 50.84C157.075 50.84 155.102 51.08 153.662 51.56C152.222 51.9867 151.209 52.8133 150.622 54.04C150.089 55.2133 149.822 56.92 149.822 59.16V76.2C149.822 79.8267 147.902 81.64 144.062 81.64ZM187.799 81.64C182.039 81.64 177.559 79.8533 174.359 76.28C171.159 72.7067 169.559 67.32 169.559 60.12V26.28C169.559 22.12 171.506 20.04 175.399 20.04C178.973 20.04 180.759 22.12 180.759 26.28V33.16C180.759 35.24 180.706 36.9467 180.599 38.28C180.546 39.6133 180.413 40.7867 180.199 41.8C180.039 42.76 179.773 43.8 179.399 44.92C180.413 43.2667 181.799 42.0933 183.559 41.4C185.373 40.7067 187.666 40.36 190.439 40.36C193.639 40.36 196.466 40.9733 198.919 42.2C201.373 43.3733 203.293 45.3733 204.679 48.2C206.066 51.0267 206.759 54.84 206.759 59.64C206.759 66.84 205.053 72.3067 201.639 76.04C198.279 79.7733 193.666 81.64 187.799 81.64ZM188.359 72.04C190.599 72.04 192.333 71.24 193.559 69.64C194.839 68.04 195.479 65.0533 195.479 60.68C195.479 57.7467 195.186 55.5333 194.599 54.04C194.066 52.4933 193.266 51.4267 192.199 50.84C191.133 50.2533 189.853 49.96 188.359 49.96C186.866 49.96 185.586 50.2533 184.519 50.84C183.453 51.4267 182.626 52.4933 182.039 54.04C181.506 55.5333 181.239 57.7467 181.239 60.68C181.239 65.0533 181.853 68.04 183.079 69.64C184.359 71.24 186.119 72.04 188.359 72.04ZM232.154 81.64C228.634 81.64 225.54 80.92 222.874 79.48C220.207 78.04 218.127 76.0133 216.634 73.4C215.194 70.7867 214.474 67.7467 214.474 64.28V45.56C214.474 41.9333 216.394 40.12 220.234 40.12C224.074 40.12 225.994 41.9333 225.994 45.56V64.12C225.994 66.6267 226.527 68.5733 227.594 69.96C228.66 71.3467 230.18 72.04 232.154 72.04C234.127 72.04 235.647 71.3467 236.714 69.96C237.78 68.5733 238.314 66.6267 238.314 64.12V45.56C238.314 41.9333 240.234 40.12 244.074 40.12C247.914 40.12 249.834 41.9333 249.834 45.56V64.28C249.834 67.7467 249.087 70.7867 247.594 73.4C246.154 76.0133 244.1 78.04 241.434 79.48C238.82 80.92 235.727 81.64 232.154 81.64ZM271.736 81.64C261.71 81.64 256.696 79.4267 256.696 75C256.696 73.6133 257.07 72.52 257.816 71.72C258.563 70.92 259.55 70.52 260.776 70.52C261.31 70.52 261.816 70.6 262.296 70.76C262.83 70.8667 263.843 71.16 265.336 71.64C265.976 71.8533 266.83 72.0667 267.896 72.28C268.963 72.4933 270.003 72.6 271.016 72.6C272.936 72.6 274.296 72.36 275.096 71.88C275.896 71.4 276.296 70.6 276.296 69.48C276.296 68.5733 276.083 67.88 275.656 67.4C275.23 66.8667 274.323 66.36 272.936 65.88C271.55 65.4 269.39 64.7333 266.456 63.88C263.79 63.1333 261.63 61.8 259.976 59.88C258.376 57.9067 257.576 55.48 257.576 52.6C257.576 48.5467 259.043 45.4533 261.976 43.32C264.91 41.1867 268.936 40.12 274.056 40.12C277.896 40.12 280.91 40.6533 283.096 41.72C285.283 42.7867 286.376 44.3333 286.376 46.36C286.376 47.64 286.003 48.7067 285.256 49.56C284.51 50.4133 283.496 50.84 282.216 50.84C281.683 50.84 281.043 50.76 280.296 50.6C279.603 50.44 278.75 50.2267 277.736 49.96C276.99 49.6933 276.19 49.48 275.336 49.32C274.536 49.16 273.683 49.08 272.776 49.08C270.216 49.08 268.936 49.9867 268.936 51.8C268.936 52.8667 269.443 53.7733 270.456 54.52C271.47 55.2133 273.416 55.9867 276.296 56.84C280.243 58.0133 283.15 59.5867 285.016 61.56C286.883 63.48 287.816 66.04 287.816 69.24C287.816 72.9733 286.376 75.9867 283.496 78.28C280.67 80.52 276.75 81.64 271.736 81.64Z" fill="white"/>
<path d="M41.5 19L77.4401 39.75V81.25L41.5 102L5.55994 81.25V39.75L41.5 19Z" fill="url(#paint0_linear_1496_25)"/>
<path d="M76.9404 40.0381V80.9609L41.5 101.423L6.05957 80.9609V40.0381L41.5 19.5762L76.9404 40.0381Z" stroke="white" stroke-opacity="0.3"/>
</g>
<defs>
<linearGradient id="paint0_linear_1496_25" x1="3.5" y1="61" x2="79" y2="61" gradientUnits="userSpaceOnUse">
<stop stop-color="#72939F"/>
<stop offset="1" stop-color="#376184"/>
</linearGradient>
<clipPath id="clip0_1496_25">
<rect width="291" height="106" fill="white"/>
</clipPath>
</defs>
</svg>
