<svg width="500" height="500" viewBox="0 0 500 500" fill="none" xmlns="http://www.w3.org/2000/svg">
<path d="M249.503 14.7383L455.789 133.804V371.935L249.503 491L43.2168 371.935V133.804L249.503 14.7383Z" fill="url(#paint0_linear_1515_886)"/>
<path d="M452.921 135.457V370.276L249.502 487.69L46.084 370.276V135.457L249.502 18.0449L452.921 135.457Z" stroke="white" stroke-opacity="0.3"/>
<path d="M152.512 333.669C147.516 333.669 143.321 331.668 139.928 327.664C136.729 323.661 135.134 318.757 135.134 312.952C135.134 309.149 136.033 305.746 137.83 302.744L183.973 230.383C186.168 226.98 187.966 224.579 189.367 223.177C190.764 221.776 192.262 220.775 193.861 220.175H151.913C138.527 220.175 131.836 214.07 131.836 201.86C131.836 189.65 138.527 183.545 151.913 183.545H225.921C231.315 183.545 235.809 185.546 239.405 189.55C243 193.553 244.798 198.457 244.798 204.262C244.798 208.065 243.899 211.468 242.101 214.47L193.262 287.431C189.666 293.035 185.569 296.238 180.977 297.039H231.914C245.296 297.039 251.989 303.344 251.989 315.954C251.989 327.764 245.296 333.669 231.914 333.669H152.512ZM299.289 336.071C284.907 336.071 277.716 329.266 277.716 315.654V201.86C277.716 188.048 284.907 181.143 299.289 181.143C306.48 181.143 311.675 182.744 314.87 185.947C318.065 188.949 319.664 193.953 319.664 200.959C323.26 194.354 328.353 189.449 334.945 186.247C341.735 182.844 349.627 181.143 358.616 181.143C375.796 181.143 384.384 188.649 384.384 203.661C384.384 209.266 382.287 213.469 378.092 216.272C373.897 219.074 367.005 220.475 357.417 220.475C348.028 220.475 340.638 221.376 335.245 223.177C329.851 224.779 326.057 227.881 323.859 232.485C321.863 236.889 320.863 243.294 320.863 251.701V315.654C320.863 329.266 313.671 336.071 299.289 336.071Z" fill="white"/>
<defs>
<linearGradient id="paint0_linear_1515_886" x1="31.3933" y1="255.738" x2="464.743" y2="255.738" gradientUnits="userSpaceOnUse">
<stop stop-color="#72939F"/>
<stop offset="1" stop-color="#376184"/>
</linearGradient>
</defs>
</svg>
